<svg width="175" height="56" viewBox="0 0 175 56" fill="none" xmlns="http://www.w3.org/2000/svg">
<rect width="175" height="56" fill="#002A5C"/>
<path d="M67.3203 42V40.6328L68.1328 40.5156L71.75 30.625H74.0859L77.6797 40.5156L78.4922 40.6328V42H74.6172V40.6328L75.4062 40.4922L74.9062 38.9297H70.9062L70.4062 40.4922L71.1953 40.6328V42H67.3203ZM71.4453 37.25H74.3672L73.0391 33.3516L72.9297 33.0078H72.8828L72.7656 33.375L71.4453 37.25ZM79.0938 45.25V43.875L80.1953 43.6406V35.1562L78.9766 34.9219V33.5469H82.2891L82.3984 34.5312C82.6484 34.1667 82.9505 33.8854 83.3047 33.6875C83.6589 33.4896 84.0807 33.3906 84.5703 33.3906C85.2526 33.3906 85.8359 33.5781 86.3203 33.9531C86.8047 34.3229 87.1745 34.8411 87.4297 35.5078C87.6901 36.1745 87.8203 36.9531 87.8203 37.8438V38.0078C87.8203 38.8411 87.6901 39.5703 87.4297 40.1953C87.1745 40.8151 86.8021 41.2995 86.3125 41.6484C85.8281 41.9922 85.2422 42.1641 84.5547 42.1641C84.1016 42.1641 83.7005 42.0833 83.3516 41.9219C83.0078 41.7552 82.7135 41.513 82.4688 41.1953V43.6406L83.5703 43.875V45.25H79.0938ZM83.875 40.4141C84.4583 40.4141 84.8802 40.1979 85.1406 39.7656C85.4062 39.3333 85.5391 38.7474 85.5391 38.0078V37.8438C85.5391 37.3073 85.4792 36.8411 85.3594 36.4453C85.2396 36.0443 85.0547 35.7318 84.8047 35.5078C84.5599 35.2786 84.2448 35.1641 83.8594 35.1641C83.5469 35.1641 83.2708 35.2344 83.0312 35.375C82.7969 35.5156 82.6094 35.7161 82.4688 35.9766V39.6797C82.6094 39.9193 82.7969 40.1016 83.0312 40.2266C83.2708 40.3516 83.5521 40.4141 83.875 40.4141ZM88.625 45.25V43.875L89.7266 43.6406V35.1562L88.5078 34.9219V33.5469H91.8203L91.9297 34.5312C92.1797 34.1667 92.4818 33.8854 92.8359 33.6875C93.1901 33.4896 93.612 33.3906 94.1016 33.3906C94.7839 33.3906 95.3672 33.5781 95.8516 33.9531C96.3359 34.3229 96.7057 34.8411 96.9609 35.5078C97.2214 36.1745 97.3516 36.9531 97.3516 37.8438V38.0078C97.3516 38.8411 97.2214 39.5703 96.9609 40.1953C96.7057 40.8151 96.3333 41.2995 95.8438 41.6484C95.3594 41.9922 94.7734 42.1641 94.0859 42.1641C93.6328 42.1641 93.2318 42.0833 92.8828 41.9219C92.5391 41.7552 92.2448 41.513 92 41.1953V43.6406L93.1016 43.875V45.25H88.625ZM93.4062 40.4141C93.9896 40.4141 94.4115 40.1979 94.6719 39.7656C94.9375 39.3333 95.0703 38.7474 95.0703 38.0078V37.8438C95.0703 37.3073 95.0104 36.8411 94.8906 36.4453C94.7708 36.0443 94.5859 35.7318 94.3359 35.5078C94.0911 35.2786 93.776 35.1641 93.3906 35.1641C93.0781 35.1641 92.8021 35.2344 92.5625 35.375C92.3281 35.5156 92.1406 35.7161 92 35.9766V39.6797C92.1406 39.9193 92.3281 40.1016 92.5625 40.2266C92.8021 40.3516 93.0833 40.4141 93.4062 40.4141ZM105.914 42.1641C105.284 42.1641 104.695 42.1042 104.148 41.9844C103.607 41.8646 103.086 41.6927 102.586 41.4688L102.562 39.0781H104.148L104.453 40.2969C104.63 40.3854 104.823 40.4557 105.031 40.5078C105.245 40.5599 105.487 40.5859 105.758 40.5859C106.268 40.5859 106.628 40.5026 106.836 40.3359C107.044 40.1693 107.148 39.9609 107.148 39.7109C107.148 39.4766 107.036 39.2708 106.812 39.0938C106.594 38.9115 106.154 38.7526 105.492 38.6172C104.492 38.4089 103.755 38.0859 103.281 37.6484C102.807 37.2109 102.57 36.651 102.57 35.9688C102.57 35.5 102.688 35.0729 102.922 34.6875C103.161 34.3021 103.523 33.9922 104.008 33.7578C104.497 33.5234 105.122 33.4062 105.883 33.4062C106.518 33.4062 107.099 33.4688 107.625 33.5938C108.156 33.7135 108.602 33.8724 108.961 34.0703L108.984 36.3828H107.406L107.164 35.2734C107.023 35.1693 106.857 35.0911 106.664 35.0391C106.477 34.987 106.263 34.9609 106.023 34.9609C105.622 34.9609 105.315 35.0417 105.102 35.2031C104.888 35.3646 104.781 35.5729 104.781 35.8281C104.781 35.974 104.818 36.1094 104.891 36.2344C104.969 36.3594 105.12 36.4766 105.344 36.5859C105.568 36.6953 105.893 36.7995 106.32 36.8984C107.367 37.138 108.13 37.4583 108.609 37.8594C109.089 38.2552 109.328 38.8125 109.328 39.5312C109.328 40.3177 109.042 40.9531 108.469 41.4375C107.901 41.9219 107.049 42.1641 105.914 42.1641ZM113.688 42.1641C112.901 42.1641 112.294 41.9479 111.867 41.5156C111.445 41.0833 111.234 40.3984 111.234 39.4609V35.1484H110.07V33.5469H111.234V31.4766H113.508V33.5469H115.062V35.1484H113.508V39.4531C113.508 39.7812 113.576 40.0156 113.711 40.1562C113.852 40.2969 114.042 40.3672 114.281 40.3672C114.411 40.3672 114.547 40.3594 114.688 40.3438C114.833 40.3229 114.958 40.3021 115.062 40.2812L115.258 41.9297C115.023 41.9974 114.768 42.0521 114.492 42.0938C114.221 42.1406 113.953 42.1641 113.688 42.1641ZM119.961 42.1641C119.128 42.1641 118.411 41.9818 117.812 41.6172C117.214 41.2526 116.755 40.7474 116.438 40.1016C116.12 39.4505 115.961 38.7031 115.961 37.8594V37.6953C115.961 36.8568 116.12 36.1146 116.438 35.4688C116.755 34.8177 117.211 34.3099 117.805 33.9453C118.404 33.5755 119.117 33.3906 119.945 33.3906C120.784 33.3906 121.5 33.5755 122.094 33.9453C122.688 34.3099 123.143 34.8151 123.461 35.4609C123.779 36.1068 123.938 36.8516 123.938 37.6953V37.8594C123.938 38.7031 123.779 39.4505 123.461 40.1016C123.143 40.7474 122.688 41.2526 122.094 41.6172C121.5 41.9818 120.789 42.1641 119.961 42.1641ZM119.961 40.4141C120.357 40.4141 120.68 40.3073 120.93 40.0938C121.18 39.8802 121.365 39.5833 121.484 39.2031C121.604 38.8177 121.664 38.3698 121.664 37.8594V37.6953C121.664 37.1953 121.604 36.7552 121.484 36.375C121.365 35.9896 121.177 35.6901 120.922 35.4766C120.672 35.2578 120.346 35.1484 119.945 35.1484C119.555 35.1484 119.232 35.2578 118.977 35.4766C118.721 35.6901 118.534 35.9896 118.414 36.375C118.299 36.7552 118.242 37.1953 118.242 37.6953V37.8594C118.242 38.3698 118.299 38.8177 118.414 39.2031C118.534 39.5885 118.721 39.888 118.977 40.1016C119.232 40.3099 119.56 40.4141 119.961 40.4141ZM125.133 42V40.6328L126.227 40.3984V35.1562L125.016 34.9219V33.5469H128.352L128.438 34.5938L128.453 34.7812C128.661 34.3229 128.919 33.9766 129.227 33.7422C129.534 33.5078 129.901 33.3906 130.328 33.3906C130.464 33.3906 130.612 33.4036 130.773 33.4297C130.935 33.4505 131.078 33.4792 131.203 33.5156L130.961 35.6172L129.828 35.5547C129.505 35.5391 129.242 35.5938 129.039 35.7188C128.841 35.8438 128.664 36.0234 128.508 36.2578V40.3984L129.602 40.6328V42H125.133ZM135.773 42.1641C134.966 42.1641 134.26 41.987 133.656 41.6328C133.052 41.2734 132.583 40.7812 132.25 40.1562C131.922 39.5312 131.758 38.8177 131.758 38.0156V37.7031C131.758 36.8646 131.914 36.1224 132.227 35.4766C132.539 34.8255 132.979 34.3151 133.547 33.9453C134.12 33.5703 134.794 33.3854 135.57 33.3906C136.336 33.3906 136.979 33.5417 137.5 33.8438C138.021 34.1458 138.417 34.5807 138.688 35.1484C138.958 35.7161 139.094 36.4036 139.094 37.2109V38.4531H134.125L134.109 38.5C134.141 38.8698 134.232 39.2005 134.383 39.4922C134.539 39.7786 134.758 40.0052 135.039 40.1719C135.32 40.3333 135.661 40.4141 136.062 40.4141C136.479 40.4141 136.867 40.362 137.227 40.2578C137.591 40.1484 137.945 39.9896 138.289 39.7812L138.906 41.1875C138.557 41.4688 138.117 41.7031 137.586 41.8906C137.06 42.0729 136.456 42.1641 135.773 42.1641ZM134.141 36.9453H136.961V36.7422C136.961 36.3984 136.914 36.1042 136.82 35.8594C136.732 35.6094 136.586 35.4167 136.383 35.2812C136.185 35.1458 135.927 35.0781 135.609 35.0781C135.307 35.0781 135.052 35.1589 134.844 35.3203C134.635 35.4766 134.471 35.6927 134.352 35.9688C134.237 36.2448 134.159 36.5573 134.117 36.9062L134.141 36.9453Z" fill="white"/>
<path d="M74.872 18.884C74.872 19.74 74.696 20.48 74.344 21.104C73.992 21.72 73.488 22.192 72.832 22.52C72.184 22.84 71.416 23 70.528 23H67.9V14.684H70.528C71.416 14.684 72.184 14.856 72.832 15.2C73.488 15.536 73.992 16.02 74.344 16.652C74.696 17.276 74.872 18.02 74.872 18.884ZM70.528 22.16C71.576 22.16 72.376 21.872 72.928 21.296C73.48 20.72 73.756 19.916 73.756 18.884C73.756 17.852 73.48 17.048 72.928 16.472C72.376 15.896 71.576 15.608 70.528 15.608H68.992V22.16H70.528ZM79.1475 16.304C79.7715 16.304 80.3355 16.444 80.8395 16.724C81.3435 17.004 81.7395 17.404 82.0275 17.924C82.3235 18.444 82.4715 19.04 82.4715 19.712C82.4715 20.376 82.3195 20.968 82.0155 21.488C81.7115 22 81.2995 22.4 80.7795 22.688C80.2595 22.968 79.6835 23.108 79.0515 23.108C78.4355 23.108 77.8795 22.968 77.3835 22.688C76.8955 22.408 76.5115 22.012 76.2315 21.5C75.9595 20.98 75.8235 20.384 75.8235 19.712C75.8235 19.032 75.9675 18.436 76.2555 17.924C76.5515 17.404 76.9515 17.004 77.4555 16.724C77.9595 16.444 78.5235 16.304 79.1475 16.304ZM79.1115 17.204C78.7115 17.204 78.3475 17.3 78.0195 17.492C77.6915 17.684 77.4275 17.968 77.2275 18.344C77.0355 18.72 76.9395 19.176 76.9395 19.712C76.9395 20.24 77.0315 20.692 77.2155 21.068C77.4075 21.444 77.6635 21.728 77.9835 21.92C78.3035 22.112 78.6595 22.208 79.0515 22.208C79.4515 22.208 79.8235 22.112 80.1675 21.92C80.5195 21.72 80.8035 21.432 81.0195 21.056C81.2355 20.68 81.3435 20.232 81.3435 19.712C81.3435 19.184 81.2395 18.732 81.0315 18.356C80.8315 17.972 80.5595 17.684 80.2155 17.492C79.8795 17.3 79.5115 17.204 79.1115 17.204ZM92.4895 16.412L90.4135 23H89.2855L87.7975 17.768L86.3095 23H85.1695L83.0815 16.412H84.2095L85.7335 21.908L87.2815 16.412H88.4095L89.8735 21.92L91.3855 16.412H92.4895ZM96.7689 16.304C97.2409 16.304 97.6689 16.412 98.0529 16.628C98.4449 16.836 98.7529 17.152 98.9769 17.576C99.2089 17.992 99.3249 18.5 99.3249 19.1V23H98.2449V19.28C98.2449 18.616 98.0849 18.112 97.7649 17.768C97.4449 17.424 97.0009 17.252 96.4329 17.252C95.8729 17.252 95.4289 17.424 95.1009 17.768C94.7809 18.112 94.6209 18.616 94.6209 19.28V23H93.5289V16.412H94.6209V17.48C94.8369 17.096 95.1329 16.804 95.5089 16.604C95.8849 16.404 96.3049 16.304 96.7689 16.304ZM102.156 14.12V23H101.064V14.12H102.156ZM106.851 16.304C107.475 16.304 108.039 16.444 108.543 16.724C109.047 17.004 109.443 17.404 109.731 17.924C110.027 18.444 110.175 19.04 110.175 19.712C110.175 20.376 110.023 20.968 109.719 21.488C109.415 22 109.003 22.4 108.483 22.688C107.963 22.968 107.387 23.108 106.755 23.108C106.139 23.108 105.583 22.968 105.087 22.688C104.599 22.408 104.215 22.012 103.935 21.5C103.663 20.98 103.527 20.384 103.527 19.712C103.527 19.032 103.671 18.436 103.959 17.924C104.255 17.404 104.655 17.004 105.159 16.724C105.663 16.444 106.227 16.304 106.851 16.304ZM106.815 17.204C106.415 17.204 106.051 17.3 105.723 17.492C105.395 17.684 105.131 17.968 104.931 18.344C104.739 18.72 104.643 19.176 104.643 19.712C104.643 20.24 104.735 20.692 104.919 21.068C105.111 21.444 105.367 21.728 105.687 21.92C106.007 22.112 106.363 22.208 106.755 22.208C107.155 22.208 107.527 22.112 107.871 21.92C108.223 21.72 108.507 21.432 108.723 21.056C108.939 20.68 109.047 20.232 109.047 19.712C109.047 19.184 108.943 18.732 108.735 18.356C108.535 17.972 108.263 17.684 107.919 17.492C107.583 17.3 107.215 17.204 106.815 17.204ZM114.253 16.304C114.813 16.304 115.301 16.436 115.717 16.7C116.141 16.964 116.461 17.308 116.677 17.732V16.412H117.781V23H116.677V21.656C116.461 22.088 116.141 22.44 115.717 22.712C115.301 22.976 114.813 23.108 114.253 23.108C113.661 23.108 113.125 22.964 112.645 22.676C112.173 22.38 111.797 21.972 111.517 21.452C111.245 20.924 111.109 20.328 111.109 19.664C111.109 19 111.245 18.416 111.517 17.912C111.797 17.4 112.173 17.004 112.645 16.724C113.125 16.444 113.661 16.304 114.253 16.304ZM114.445 17.252C114.053 17.252 113.685 17.348 113.341 17.54C113.005 17.732 112.733 18.012 112.525 18.38C112.325 18.74 112.225 19.168 112.225 19.664C112.225 20.16 112.325 20.6 112.525 20.984C112.733 21.36 113.005 21.652 113.341 21.86C113.685 22.068 114.053 22.172 114.445 22.172C114.845 22.172 115.213 22.072 115.549 21.872C115.893 21.672 116.165 21.388 116.365 21.02C116.573 20.644 116.677 20.208 116.677 19.712C116.677 19.216 116.573 18.784 116.365 18.416C116.165 18.04 115.893 17.752 115.549 17.552C115.213 17.352 114.845 17.252 114.445 17.252ZM122.292 16.304C122.852 16.304 123.34 16.436 123.756 16.7C124.18 16.964 124.5 17.308 124.716 17.732V14.12H125.82V23H124.716V21.656C124.5 22.088 124.18 22.44 123.756 22.712C123.34 22.976 122.852 23.108 122.292 23.108C121.7 23.108 121.164 22.964 120.684 22.676C120.212 22.38 119.836 21.972 119.556 21.452C119.284 20.924 119.148 20.328 119.148 19.664C119.148 19 119.284 18.416 119.556 17.912C119.836 17.4 120.212 17.004 120.684 16.724C121.164 16.444 121.7 16.304 122.292 16.304ZM122.484 17.252C122.092 17.252 121.724 17.348 121.38 17.54C121.044 17.732 120.772 18.012 120.564 18.38C120.364 18.74 120.264 19.168 120.264 19.664C120.264 20.16 120.364 20.6 120.564 20.984C120.772 21.36 121.044 21.652 121.38 21.86C121.724 22.068 122.092 22.172 122.484 22.172C122.884 22.172 123.252 22.072 123.588 21.872C123.932 21.672 124.204 21.388 124.404 21.02C124.612 20.644 124.716 20.208 124.716 19.712C124.716 19.216 124.612 18.784 124.404 18.416C124.204 18.04 123.932 17.752 123.588 17.552C123.252 17.352 122.884 17.252 122.484 17.252ZM134.108 16.304C134.732 16.304 135.296 16.444 135.8 16.724C136.304 17.004 136.7 17.404 136.988 17.924C137.284 18.444 137.432 19.04 137.432 19.712C137.432 20.376 137.28 20.968 136.976 21.488C136.672 22 136.26 22.4 135.74 22.688C135.22 22.968 134.644 23.108 134.012 23.108C133.396 23.108 132.84 22.968 132.344 22.688C131.856 22.408 131.472 22.012 131.192 21.5C130.92 20.98 130.784 20.384 130.784 19.712C130.784 19.032 130.928 18.436 131.216 17.924C131.512 17.404 131.912 17.004 132.416 16.724C132.92 16.444 133.484 16.304 134.108 16.304ZM134.072 17.204C133.672 17.204 133.308 17.3 132.98 17.492C132.652 17.684 132.388 17.968 132.188 18.344C131.996 18.72 131.9 19.176 131.9 19.712C131.9 20.24 131.992 20.692 132.176 21.068C132.368 21.444 132.624 21.728 132.944 21.92C133.264 22.112 133.62 22.208 134.012 22.208C134.412 22.208 134.784 22.112 135.128 21.92C135.48 21.72 135.764 21.432 135.98 21.056C136.196 20.68 136.304 20.232 136.304 19.712C136.304 19.184 136.2 18.732 135.992 18.356C135.792 17.972 135.52 17.684 135.176 17.492C134.84 17.3 134.472 17.204 134.072 17.204ZM142.038 16.304C142.51 16.304 142.938 16.412 143.322 16.628C143.714 16.836 144.022 17.152 144.246 17.576C144.478 17.992 144.594 18.5 144.594 19.1V23H143.514V19.28C143.514 18.616 143.354 18.112 143.034 17.768C142.714 17.424 142.27 17.252 141.702 17.252C141.142 17.252 140.698 17.424 140.37 17.768C140.05 18.112 139.89 18.616 139.89 19.28V23H138.798V16.412H139.89V17.48C140.106 17.096 140.402 16.804 140.778 16.604C141.154 16.404 141.574 16.304 142.038 16.304Z" fill="white" fill-opacity="0.56"/>
<g clip-path="url(#clip0_306_290)">
<path d="M48.2488 14C46.756 14.1032 45.0113 15.0587 43.9946 16.303C43.0671 17.4317 42.3041 19.1082 42.6016 20.7375C44.2326 20.7882 45.9178 19.81 46.8943 18.5447C47.8078 17.367 48.499 15.701 48.2488 14Z" fill="white"/>
<path d="M54.148 23.3939C52.7148 21.5967 50.7005 20.5537 48.7983 20.5537C46.2871 20.5537 45.2248 21.756 43.4801 21.756C41.6811 21.756 40.3143 20.5572 38.1426 20.5572C36.0094 20.5572 33.7379 21.861 32.2976 24.0904C30.2729 27.2299 30.6194 33.1326 33.9006 38.1604C35.0749 39.9593 36.6429 41.9823 38.6939 41.9998C40.5191 42.0173 41.0336 40.8291 43.5063 40.8168C45.9791 40.8028 46.4481 42.0156 48.2698 41.9963C50.3225 41.9806 51.9763 39.7388 53.1505 37.9399C53.9923 36.6501 54.3055 36.0009 54.9583 34.5449C50.2105 32.7371 49.4493 25.9857 54.148 23.3939Z" fill="white"/>
</g>
<defs>
<clipPath id="clip0_306_290">
<rect width="28" height="28" fill="white" transform="translate(29 14)"/>
</clipPath>
</defs>
</svg>
