<svg width="175" height="56" viewBox="0 0 175 56" fill="none" xmlns="http://www.w3.org/2000/svg">
<rect width="175" height="56" fill="#FA394A"/>
<path d="M65.7266 42.1641C64.5964 42.1641 63.6328 41.9297 62.8359 41.4609C62.0391 40.9922 61.4271 40.3411 61 39.5078C60.5781 38.6745 60.3672 37.7083 60.3672 36.6094V36.2188C60.3672 35.0833 60.5781 34.0833 61 33.2188C61.4219 32.3542 62.0182 31.6797 62.7891 31.1953C63.5651 30.7057 64.4818 30.4609 65.5391 30.4609C66.3568 30.4609 67.125 30.5729 67.8438 30.7969C68.5625 31.0208 69.1875 31.3568 69.7188 31.8047V34.3281H68.0312L67.7109 32.8047C67.5078 32.6276 67.2344 32.487 66.8906 32.3828C66.5469 32.2734 66.1536 32.2188 65.7109 32.2188C65.0755 32.2188 64.526 32.388 64.0625 32.7266C63.6042 33.0599 63.2526 33.526 63.0078 34.125C62.763 34.7188 62.6406 35.4115 62.6406 36.2031V36.6094C62.6406 37.3802 62.7604 38.0521 63 38.625C63.2448 39.1927 63.6016 39.6328 64.0703 39.9453C64.5391 40.2578 65.1146 40.4141 65.7969 40.4141C66.1979 40.4141 66.5651 40.3776 66.8984 40.3047C67.237 40.2266 67.5156 40.1328 67.7344 40.0234V38.0938L66.1094 37.9688V36.3672H70.0234V40.9688C69.5182 41.3281 68.9089 41.6172 68.1953 41.8359C67.487 42.0547 66.6641 42.1641 65.7266 42.1641ZM75.2578 42.1641C74.4245 42.1641 73.7083 41.9818 73.1094 41.6172C72.5104 41.2526 72.0521 40.7474 71.7344 40.1016C71.4167 39.4505 71.2578 38.7031 71.2578 37.8594V37.6953C71.2578 36.8568 71.4167 36.1146 71.7344 35.4688C72.0521 34.8177 72.5078 34.3099 73.1016 33.9453C73.7005 33.5755 74.4141 33.3906 75.2422 33.3906C76.0807 33.3906 76.7969 33.5755 77.3906 33.9453C77.9844 34.3099 78.4401 34.8151 78.7578 35.4609C79.0755 36.1068 79.2344 36.8516 79.2344 37.6953V37.8594C79.2344 38.7031 79.0755 39.4505 78.7578 40.1016C78.4401 40.7474 77.9844 41.2526 77.3906 41.6172C76.7969 41.9818 76.0859 42.1641 75.2578 42.1641ZM75.2578 40.4141C75.6536 40.4141 75.9766 40.3073 76.2266 40.0938C76.4766 39.8802 76.6615 39.5833 76.7812 39.2031C76.901 38.8177 76.9609 38.3698 76.9609 37.8594V37.6953C76.9609 37.1953 76.901 36.7552 76.7812 36.375C76.6615 35.9896 76.474 35.6901 76.2188 35.4766C75.9688 35.2578 75.6432 35.1484 75.2422 35.1484C74.8516 35.1484 74.5286 35.2578 74.2734 35.4766C74.0182 35.6901 73.8307 35.9896 73.7109 36.375C73.5964 36.7552 73.5391 37.1953 73.5391 37.6953V37.8594C73.5391 38.3698 73.5964 38.8177 73.7109 39.2031C73.8307 39.5885 74.0182 39.888 74.2734 40.1016C74.5286 40.3099 74.8568 40.4141 75.2578 40.4141ZM84.3828 42.1641C83.5495 42.1641 82.8333 41.9818 82.2344 41.6172C81.6354 41.2526 81.1771 40.7474 80.8594 40.1016C80.5417 39.4505 80.3828 38.7031 80.3828 37.8594V37.6953C80.3828 36.8568 80.5417 36.1146 80.8594 35.4688C81.1771 34.8177 81.6328 34.3099 82.2266 33.9453C82.8255 33.5755 83.5391 33.3906 84.3672 33.3906C85.2057 33.3906 85.9219 33.5755 86.5156 33.9453C87.1094 34.3099 87.5651 34.8151 87.8828 35.4609C88.2005 36.1068 88.3594 36.8516 88.3594 37.6953V37.8594C88.3594 38.7031 88.2005 39.4505 87.8828 40.1016C87.5651 40.7474 87.1094 41.2526 86.5156 41.6172C85.9219 41.9818 85.2109 42.1641 84.3828 42.1641ZM84.3828 40.4141C84.7786 40.4141 85.1016 40.3073 85.3516 40.0938C85.6016 39.8802 85.7865 39.5833 85.9062 39.2031C86.026 38.8177 86.0859 38.3698 86.0859 37.8594V37.6953C86.0859 37.1953 86.026 36.7552 85.9062 36.375C85.7865 35.9896 85.599 35.6901 85.3438 35.4766C85.0938 35.2578 84.7682 35.1484 84.3672 35.1484C83.9766 35.1484 83.6536 35.2578 83.3984 35.4766C83.1432 35.6901 82.9557 35.9896 82.8359 36.375C82.7214 36.7552 82.6641 37.1953 82.6641 37.6953V37.8594C82.6641 38.3698 82.7214 38.8177 82.8359 39.2031C82.9557 39.5885 83.1432 39.888 83.3984 40.1016C83.6536 40.3099 83.9818 40.4141 84.3828 40.4141ZM93.2031 45.4141C92.776 45.4141 92.2969 45.3594 91.7656 45.25C91.2344 45.1406 90.7656 44.9844 90.3594 44.7812L90.7812 43.1562C91.1458 43.3125 91.5312 43.4349 91.9375 43.5234C92.349 43.6172 92.7318 43.6641 93.0859 43.6641C93.6953 43.6641 94.1406 43.4948 94.4219 43.1562C94.7083 42.8177 94.8516 42.3464 94.8516 41.7422V41.1875C94.6016 41.5052 94.3073 41.7474 93.9688 41.9141C93.6302 42.0807 93.2422 42.1641 92.8047 42.1641C92.1172 42.1641 91.526 41.9922 91.0312 41.6484C90.5365 41.2995 90.1589 40.8125 89.8984 40.1875C89.638 39.5625 89.5078 38.8359 89.5078 38.0078V37.8438C89.5078 36.9531 89.638 36.1745 89.8984 35.5078C90.1589 34.8411 90.5312 34.3229 91.0156 33.9531C91.5 33.5781 92.0807 33.3906 92.7578 33.3906C93.263 33.3906 93.6979 33.4974 94.0625 33.7109C94.4271 33.9193 94.737 34.2188 94.9922 34.6094L95.1562 33.5469H97.1406V41.75C97.1406 42.4948 96.9818 43.1406 96.6641 43.6875C96.3516 44.2344 95.901 44.6589 95.3125 44.9609C94.724 45.263 94.0208 45.4141 93.2031 45.4141ZM93.4453 40.3906C93.7682 40.3906 94.0469 40.3281 94.2812 40.2031C94.5156 40.0729 94.7057 39.8854 94.8516 39.6406V35.9688C94.7057 35.7135 94.513 35.5156 94.2734 35.375C94.0391 35.2344 93.7656 35.1641 93.4531 35.1641C93.0625 35.1641 92.7448 35.2786 92.5 35.5078C92.2552 35.7318 92.0755 36.0443 91.9609 36.4453C91.8464 36.8411 91.7891 37.3073 91.7891 37.8438V38.0078C91.7891 38.7474 91.9167 39.3307 92.1719 39.7578C92.4271 40.1797 92.8516 40.3906 93.4453 40.3906ZM96.8516 35.1953L95.8594 33.5469H98.1328V34.9219L96.8516 35.1953ZM98.7109 42V40.6328L99.8125 40.3984V31.4219L98.5938 31.1875V29.8125H102.094V40.3984L103.195 40.6328V42H98.7109ZM107.836 42.1641C107.029 42.1641 106.323 41.987 105.719 41.6328C105.115 41.2734 104.646 40.7812 104.312 40.1562C103.984 39.5312 103.82 38.8177 103.82 38.0156V37.7031C103.82 36.8646 103.977 36.1224 104.289 35.4766C104.602 34.8255 105.042 34.3151 105.609 33.9453C106.182 33.5703 106.857 33.3854 107.633 33.3906C108.398 33.3906 109.042 33.5417 109.562 33.8438C110.083 34.1458 110.479 34.5807 110.75 35.1484C111.021 35.7161 111.156 36.4036 111.156 37.2109V38.4531H106.188L106.172 38.5C106.203 38.8698 106.294 39.2005 106.445 39.4922C106.602 39.7786 106.82 40.0052 107.102 40.1719C107.383 40.3333 107.724 40.4141 108.125 40.4141C108.542 40.4141 108.93 40.362 109.289 40.2578C109.654 40.1484 110.008 39.9896 110.352 39.7812L110.969 41.1875C110.62 41.4688 110.18 41.7031 109.648 41.8906C109.122 42.0729 108.518 42.1641 107.836 42.1641ZM106.203 36.9453H109.023V36.7422C109.023 36.3984 108.977 36.1042 108.883 35.8594C108.794 35.6094 108.648 35.4167 108.445 35.2812C108.247 35.1458 107.99 35.0781 107.672 35.0781C107.37 35.0781 107.115 35.1589 106.906 35.3203C106.698 35.4766 106.534 35.6927 106.414 35.9688C106.299 36.2448 106.221 36.5573 106.18 36.9062L106.203 36.9453ZM116.078 42V40.6328L117.289 40.3984V32.2344L116.078 32V30.625H117.289H121.492C122.362 30.625 123.112 30.7786 123.742 31.0859C124.372 31.388 124.857 31.8125 125.195 32.3594C125.534 32.901 125.703 33.5339 125.703 34.2578C125.703 34.9818 125.534 35.6172 125.195 36.1641C124.857 36.7057 124.372 37.1276 123.742 37.4297C123.112 37.7266 122.362 37.875 121.492 37.875H119.57V40.3984L120.789 40.6328V42H116.078ZM119.57 36.1172H121.492C122.128 36.1172 122.607 35.9453 122.93 35.6016C123.258 35.2526 123.422 34.8099 123.422 34.2734C123.422 33.7266 123.258 33.276 122.93 32.9219C122.607 32.5625 122.128 32.3828 121.492 32.3828H119.57V36.1172ZM126.367 42V40.6328L127.469 40.3984V31.4219L126.25 31.1875V29.8125H129.75V40.3984L130.852 40.6328V42H126.367ZM134.43 42.1641C133.591 42.1641 132.924 41.9401 132.43 41.4922C131.935 41.0391 131.688 40.4245 131.688 39.6484C131.688 39.1172 131.831 38.651 132.117 38.25C132.409 37.849 132.836 37.5339 133.398 37.3047C133.966 37.0755 134.664 36.9609 135.492 36.9609H136.609V36.3359C136.609 35.9297 136.49 35.6016 136.25 35.3516C136.016 35.0964 135.661 34.9688 135.188 34.9688C134.943 34.9688 134.724 35 134.531 35.0625C134.339 35.1198 134.161 35.2031 134 35.3125L133.82 36.4297H132.18L132.148 34.2344C132.591 33.9844 133.07 33.7812 133.586 33.625C134.102 33.4688 134.677 33.3906 135.312 33.3906C136.417 33.3906 137.289 33.6484 137.93 34.1641C138.57 34.6745 138.891 35.4062 138.891 36.3594V39.8438C138.891 39.9583 138.891 40.0729 138.891 40.1875C138.896 40.2969 138.906 40.4036 138.922 40.5078L139.805 40.6328V42H136.977C136.919 41.8542 136.862 41.6979 136.805 41.5312C136.747 41.3646 136.706 41.1979 136.68 41.0312C136.409 41.375 136.089 41.651 135.719 41.8594C135.354 42.0625 134.924 42.1641 134.43 42.1641ZM135.039 40.4766C135.357 40.4766 135.659 40.4062 135.945 40.2656C136.232 40.1198 136.453 39.9297 136.609 39.6953V38.3594H135.484C134.984 38.3594 134.604 38.474 134.344 38.7031C134.089 38.9323 133.961 39.2083 133.961 39.5312C133.961 39.8333 134.055 40.0677 134.242 40.2344C134.435 40.3958 134.701 40.4766 135.039 40.4766ZM142.602 45.4141C142.404 45.4141 142.193 45.3958 141.969 45.3594C141.75 45.3281 141.542 45.2839 141.344 45.2266L141.602 43.5547C141.701 43.5755 141.81 43.5911 141.93 43.6016C142.049 43.612 142.154 43.6172 142.242 43.6172C142.57 43.6172 142.854 43.5312 143.094 43.3594C143.333 43.1875 143.508 42.9401 143.617 42.6172L143.805 42.0938L140.977 35.0703L139.938 34.9219V33.5469H144.422V34.9219L143.391 35.0781L144.719 38.8047L144.883 39.2656H144.93L146.5 35.0625L145.492 34.9219V33.5469H149.672V34.9219L148.719 35.0547L145.492 43.2578C145.336 43.6484 145.135 44.0052 144.891 44.3281C144.651 44.6562 144.344 44.9193 143.969 45.1172C143.599 45.3151 143.143 45.4141 142.602 45.4141Z" fill="white"/>
<path d="M67.872 18.884C67.872 19.74 67.696 20.48 67.344 21.104C66.992 21.72 66.488 22.192 65.832 22.52C65.184 22.84 64.416 23 63.528 23H60.9V14.684H63.528C64.416 14.684 65.184 14.856 65.832 15.2C66.488 15.536 66.992 16.02 67.344 16.652C67.696 17.276 67.872 18.02 67.872 18.884ZM63.528 22.16C64.576 22.16 65.376 21.872 65.928 21.296C66.48 20.72 66.756 19.916 66.756 18.884C66.756 17.852 66.48 17.048 65.928 16.472C65.376 15.896 64.576 15.608 63.528 15.608H61.992V22.16H63.528ZM72.1475 16.304C72.7715 16.304 73.3355 16.444 73.8395 16.724C74.3435 17.004 74.7395 17.404 75.0275 17.924C75.3235 18.444 75.4715 19.04 75.4715 19.712C75.4715 20.376 75.3195 20.968 75.0155 21.488C74.7115 22 74.2995 22.4 73.7795 22.688C73.2595 22.968 72.6835 23.108 72.0515 23.108C71.4355 23.108 70.8795 22.968 70.3835 22.688C69.8955 22.408 69.5115 22.012 69.2315 21.5C68.9595 20.98 68.8235 20.384 68.8235 19.712C68.8235 19.032 68.9675 18.436 69.2555 17.924C69.5515 17.404 69.9515 17.004 70.4555 16.724C70.9595 16.444 71.5235 16.304 72.1475 16.304ZM72.1115 17.204C71.7115 17.204 71.3475 17.3 71.0195 17.492C70.6915 17.684 70.4275 17.968 70.2275 18.344C70.0355 18.72 69.9395 19.176 69.9395 19.712C69.9395 20.24 70.0315 20.692 70.2155 21.068C70.4075 21.444 70.6635 21.728 70.9835 21.92C71.3035 22.112 71.6595 22.208 72.0515 22.208C72.4515 22.208 72.8235 22.112 73.1675 21.92C73.5195 21.72 73.8035 21.432 74.0195 21.056C74.2355 20.68 74.3435 20.232 74.3435 19.712C74.3435 19.184 74.2395 18.732 74.0315 18.356C73.8315 17.972 73.5595 17.684 73.2155 17.492C72.8795 17.3 72.5115 17.204 72.1115 17.204ZM85.4895 16.412L83.4135 23H82.2855L80.7975 17.768L79.3095 23H78.1695L76.0815 16.412H77.2095L78.7335 21.908L80.2815 16.412H81.4095L82.8735 21.92L84.3855 16.412H85.4895ZM89.7689 16.304C90.2409 16.304 90.6689 16.412 91.0529 16.628C91.4449 16.836 91.7529 17.152 91.9769 17.576C92.2089 17.992 92.3249 18.5 92.3249 19.1V23H91.2449V19.28C91.2449 18.616 91.0849 18.112 90.7649 17.768C90.4449 17.424 90.0009 17.252 89.4329 17.252C88.8729 17.252 88.4289 17.424 88.1009 17.768C87.7809 18.112 87.6209 18.616 87.6209 19.28V23H86.5289V16.412H87.6209V17.48C87.8369 17.096 88.1329 16.804 88.5089 16.604C88.8849 16.404 89.3049 16.304 89.7689 16.304ZM95.1561 14.12V23H94.0641V14.12H95.1561ZM99.8506 16.304C100.475 16.304 101.039 16.444 101.543 16.724C102.047 17.004 102.443 17.404 102.731 17.924C103.027 18.444 103.175 19.04 103.175 19.712C103.175 20.376 103.023 20.968 102.719 21.488C102.415 22 102.003 22.4 101.483 22.688C100.963 22.968 100.387 23.108 99.7546 23.108C99.1386 23.108 98.5826 22.968 98.0866 22.688C97.5986 22.408 97.2146 22.012 96.9346 21.5C96.6626 20.98 96.5266 20.384 96.5266 19.712C96.5266 19.032 96.6706 18.436 96.9586 17.924C97.2546 17.404 97.6546 17.004 98.1586 16.724C98.6626 16.444 99.2266 16.304 99.8506 16.304ZM99.8146 17.204C99.4146 17.204 99.0506 17.3 98.7226 17.492C98.3946 17.684 98.1306 17.968 97.9306 18.344C97.7386 18.72 97.6426 19.176 97.6426 19.712C97.6426 20.24 97.7346 20.692 97.9186 21.068C98.1106 21.444 98.3666 21.728 98.6866 21.92C99.0066 22.112 99.3626 22.208 99.7546 22.208C100.155 22.208 100.527 22.112 100.871 21.92C101.223 21.72 101.507 21.432 101.723 21.056C101.939 20.68 102.047 20.232 102.047 19.712C102.047 19.184 101.943 18.732 101.735 18.356C101.535 17.972 101.263 17.684 100.919 17.492C100.583 17.3 100.215 17.204 99.8146 17.204ZM107.253 16.304C107.813 16.304 108.301 16.436 108.717 16.7C109.141 16.964 109.461 17.308 109.677 17.732V16.412H110.781V23H109.677V21.656C109.461 22.088 109.141 22.44 108.717 22.712C108.301 22.976 107.813 23.108 107.253 23.108C106.661 23.108 106.125 22.964 105.645 22.676C105.173 22.38 104.797 21.972 104.517 21.452C104.245 20.924 104.109 20.328 104.109 19.664C104.109 19 104.245 18.416 104.517 17.912C104.797 17.4 105.173 17.004 105.645 16.724C106.125 16.444 106.661 16.304 107.253 16.304ZM107.445 17.252C107.053 17.252 106.685 17.348 106.341 17.54C106.005 17.732 105.733 18.012 105.525 18.38C105.325 18.74 105.225 19.168 105.225 19.664C105.225 20.16 105.325 20.6 105.525 20.984C105.733 21.36 106.005 21.652 106.341 21.86C106.685 22.068 107.053 22.172 107.445 22.172C107.845 22.172 108.213 22.072 108.549 21.872C108.893 21.672 109.165 21.388 109.365 21.02C109.573 20.644 109.677 20.208 109.677 19.712C109.677 19.216 109.573 18.784 109.365 18.416C109.165 18.04 108.893 17.752 108.549 17.552C108.213 17.352 107.845 17.252 107.445 17.252ZM115.292 16.304C115.852 16.304 116.34 16.436 116.756 16.7C117.18 16.964 117.5 17.308 117.716 17.732V14.12H118.82V23H117.716V21.656C117.5 22.088 117.18 22.44 116.756 22.712C116.34 22.976 115.852 23.108 115.292 23.108C114.7 23.108 114.164 22.964 113.684 22.676C113.212 22.38 112.836 21.972 112.556 21.452C112.284 20.924 112.148 20.328 112.148 19.664C112.148 19 112.284 18.416 112.556 17.912C112.836 17.4 113.212 17.004 113.684 16.724C114.164 16.444 114.7 16.304 115.292 16.304ZM115.484 17.252C115.092 17.252 114.724 17.348 114.38 17.54C114.044 17.732 113.772 18.012 113.564 18.38C113.364 18.74 113.264 19.168 113.264 19.664C113.264 20.16 113.364 20.6 113.564 20.984C113.772 21.36 114.044 21.652 114.38 21.86C114.724 22.068 115.092 22.172 115.484 22.172C115.884 22.172 116.252 22.072 116.588 21.872C116.932 21.672 117.204 21.388 117.404 21.02C117.612 20.644 117.716 20.208 117.716 19.712C117.716 19.216 117.612 18.784 117.404 18.416C117.204 18.04 116.932 17.752 116.588 17.552C116.252 17.352 115.884 17.252 115.484 17.252ZM127.108 16.304C127.732 16.304 128.296 16.444 128.8 16.724C129.304 17.004 129.7 17.404 129.988 17.924C130.284 18.444 130.432 19.04 130.432 19.712C130.432 20.376 130.28 20.968 129.976 21.488C129.672 22 129.26 22.4 128.74 22.688C128.22 22.968 127.644 23.108 127.012 23.108C126.396 23.108 125.84 22.968 125.344 22.688C124.856 22.408 124.472 22.012 124.192 21.5C123.92 20.98 123.784 20.384 123.784 19.712C123.784 19.032 123.928 18.436 124.216 17.924C124.512 17.404 124.912 17.004 125.416 16.724C125.92 16.444 126.484 16.304 127.108 16.304ZM127.072 17.204C126.672 17.204 126.308 17.3 125.98 17.492C125.652 17.684 125.388 17.968 125.188 18.344C124.996 18.72 124.9 19.176 124.9 19.712C124.9 20.24 124.992 20.692 125.176 21.068C125.368 21.444 125.624 21.728 125.944 21.92C126.264 22.112 126.62 22.208 127.012 22.208C127.412 22.208 127.784 22.112 128.128 21.92C128.48 21.72 128.764 21.432 128.98 21.056C129.196 20.68 129.304 20.232 129.304 19.712C129.304 19.184 129.2 18.732 128.992 18.356C128.792 17.972 128.52 17.684 128.176 17.492C127.84 17.3 127.472 17.204 127.072 17.204ZM135.038 16.304C135.51 16.304 135.938 16.412 136.322 16.628C136.714 16.836 137.022 17.152 137.246 17.576C137.478 17.992 137.594 18.5 137.594 19.1V23H136.514V19.28C136.514 18.616 136.354 18.112 136.034 17.768C135.714 17.424 135.27 17.252 134.702 17.252C134.142 17.252 133.698 17.424 133.37 17.768C133.05 18.112 132.89 18.616 132.89 19.28V23H131.798V16.412H132.89V17.48C133.106 17.096 133.402 16.804 133.778 16.604C134.154 16.404 134.574 16.304 135.038 16.304Z" fill="white" fill-opacity="0.56"/>
<g clip-path="url(#clip0_306_279)">
<path d="M43.925 32.4979L40.9396 29.5625L29.9802 40.3698L43.925 32.4979Z" fill="white"/>
<path d="M43.925 24.5071L29.9802 16.6353L40.9396 27.4425L43.925 24.5071Z" fill="white"/>
<path d="M48.2948 29.9864C49.1885 29.2884 49.1885 27.7155 48.2354 27.0176L45.3104 25.353L42.0469 28.503L45.3104 31.653L48.2948 29.9864Z" fill="white"/>
<path d="M27.1188 41L39.8625 28.4979L27.1188 16.001V16C26.474 16.3323 26.0417 16.9375 26.0417 17.724V39.276C26.0417 40.0625 26.474 40.6677 27.1188 41Z" fill="white"/>
</g>
<defs>
<clipPath id="clip0_306_279">
<rect width="25" height="25" fill="white" transform="translate(25 16)"/>
</clipPath>
</defs>
</svg>
