<svg width="43" height="43" viewBox="0 0 43 43" fill="none" xmlns="http://www.w3.org/2000/svg">
<path d="M9.70985 0C6.93131 0 4.67079 2.26052 4.67079 5.03906V37.9609C4.67079 40.7395 6.93131 43 9.70985 43H38.3292V0H9.70985ZM7.19032 5.03906C7.19032 3.64979 8.32058 2.51953 9.70985 2.51953H11.8943V32.9219H9.70985C8.79274 32.9219 7.9319 33.1683 7.19032 33.5981V5.03906ZM35.8097 40.4805H9.70985C8.32058 40.4805 7.19032 39.3502 7.19032 37.9609C7.19032 36.5717 8.32058 35.4414 9.70985 35.4414H35.8097V40.4805ZM35.8097 32.9219H14.4138V2.51953H35.8097V32.9219Z" fill="#FA394A"/>
<path d="M23.8507 19.6025H26.3703V16.4344H29.5385V13.9149H26.3703V10.7466H23.8507V13.9149H20.6826V16.4344H23.8507V19.6025Z" fill="#FA394A"/>
<path d="M20.6826 23.435H29.5385V25.9545H20.6826V23.435Z" fill="#FA394A"/>
</svg>
