<svg width="104" height="112" viewBox="0 0 104 112" fill="none" xmlns="http://www.w3.org/2000/svg">
<g clip-path="url(#clip0_336_1242)">
<path d="M0.658936 65.8631L5.56032 69.1849L5.10725 64.9608H0.658936V65.8631Z" fill="#002A5C"/>
<path d="M103.341 65.8631L98.8926 68.8978V64.9608H103.341V65.8631Z" fill="#002A5C"/>
<path d="M78.2162 95.7188L52.1853 112L25.9485 95.7188C12.4388 87.3526 3.83044 72.8348 2.88312 56.7997L0.700147 20.7514C0.41183 16.4452 2.67718 12.3442 6.4253 10.3347C14.1687 6.11057 29.1611 0.0409996 51.0732 -1.09751e-05C73.9326 -0.0410216 89.5429 6.15158 97.5334 10.3757C101.323 12.3852 103.588 16.4863 103.341 20.8334L101.158 56.8817C100.169 72.8759 91.6023 87.3526 78.2162 95.7188Z" fill="#FFC333"/>
<path d="M27.7194 92.8481C15.1571 85.056 7.12537 71.5225 6.21923 56.5947L4.03626 20.5463C3.87151 17.5526 5.43665 14.6818 8.03151 13.2464C14.8275 9.5965 29.4493 3.4039 51.0731 3.36288H51.3202C73.7266 3.36288 88.925 9.63751 95.9681 13.3695C98.6042 14.7638 100.169 17.6346 100.005 20.6694L97.8216 56.7177C96.9155 71.5635 88.925 85.097 76.4862 92.8891L52.2675 108.022L27.7194 92.8481Z" fill="#002A5C"/>
<path d="M51.2791 3.97803C73.5619 3.97803 88.6367 10.2116 95.6387 13.9026C98.0688 15.1739 99.5104 17.8396 99.3456 20.6283L97.1627 56.6767C96.2565 71.3175 88.3896 84.6869 76.1155 92.3559L52.2264 107.284L28.0902 92.3149C15.6926 84.6459 7.78446 71.2765 6.87832 56.5536L4.65416 20.5053C4.48941 17.7166 5.931 15.0919 8.31991 13.7796C15.0748 10.1706 29.6142 4.01904 51.0732 3.97803H51.2791ZM51.2791 2.74771H51.032C29.3258 2.78872 14.5805 9.02234 7.74327 12.7133C4.94248 14.2717 3.25377 17.3475 3.41852 20.5873L5.60149 56.6357C6.50763 71.7276 14.6629 85.4661 27.39 93.3812L52.1853 108.76L76.7334 93.4222C89.3781 85.5071 97.451 71.8096 98.3571 56.7587L100.54 20.7104C100.746 17.4295 99.0161 14.3127 96.1742 12.8363C89.131 9.06335 73.809 2.74771 51.2791 2.74771Z" fill="white"/>
<path d="M103.341 43.9224H0.658936V65.863H103.341V43.9224Z" fill="#002A5C"/>
<path d="M104 42.9791H0V64.9198H104V42.9791Z" fill="#FFC333"/>
<path d="M28.5844 58.5631H21.8708L20.4704 62.5822H17.3401L23.889 45.3577H26.5662L33.1151 62.5412H29.9848L28.5844 58.5631ZM22.7357 56.1435H27.7607L25.2482 49.0077L22.7357 56.1435Z" fill="#001E43"/>
<path d="M35.0923 62.5822V45.3987H40.1996C41.7236 45.3987 43.0828 45.7268 44.2772 46.424C45.4717 47.1212 46.3778 48.0644 47.0368 49.2948C47.6959 50.5251 48.0254 51.9604 48.0254 53.5599V54.4211C48.0254 56.0615 47.6959 57.4969 47.0368 58.7272C46.3778 59.9575 45.4717 60.9008 44.236 61.5979C43.0416 62.2541 41.6412 62.5822 40.0761 62.5822H35.0923ZM38.099 47.7774V60.1626H40.0761C41.6412 60.1626 42.8768 59.6704 43.7006 58.6862C44.5244 57.7019 44.9774 56.3076 44.9774 54.4621V53.5188C44.9774 51.6324 44.5656 50.238 43.7418 49.2537C42.918 48.2695 41.7236 47.7774 40.1996 47.7774H38.099Z" fill="#001E43"/>
<path d="M54.8625 45.3577L59.8463 58.5631L64.83 45.3577H68.7017V62.5412H65.695V56.8817L65.9833 49.2947L60.876 62.5412H58.7342L53.6269 49.2947L53.9152 56.8817V62.5412H50.9084V45.3577H54.8625Z" fill="#001E43"/>
<path d="M82.1289 58.5632H75.4565L74.0561 62.5822H70.9258L77.4335 45.3987H80.1107L86.6596 62.5822H83.5293L82.1289 58.5632ZM76.2802 56.1435H81.3052L78.7927 49.0077L76.2802 56.1435Z" fill="#001E43"/>
<path d="M11.5738 31.9062V34.859C11.5738 35.9663 12.0681 36.4584 12.7271 36.4584C13.4685 36.4584 13.9627 35.9663 13.9627 34.859V31.9062H14.6217V34.818C14.6217 36.3354 13.798 36.9916 12.7271 36.9916C11.6974 36.9916 10.9148 36.4174 10.9148 34.859V31.9473H11.5738V31.9062Z" fill="white"/>
<path d="M15.7339 36.8685V31.9062H16.4341L18.0404 34.4079C18.4111 34.982 18.6994 35.5152 18.9466 36.0073C18.9054 35.3511 18.8642 34.736 18.8642 33.9568V31.8652H19.482V36.8275H18.823L17.2167 34.2849C16.8872 33.7107 16.5165 33.1776 16.2693 32.6034H16.2281C16.2693 33.2186 16.2693 33.8337 16.2693 34.654V36.7865H15.7339V36.8685Z" fill="white"/>
<path d="M21.253 31.9062V36.8685H20.594V31.9062H21.253Z" fill="white"/>
<path d="M23.3125 32.4394H21.7886V31.9062H25.4955V32.4394H23.9715V36.8685H23.3125V32.4394Z" fill="white"/>
<path d="M28.6669 34.5309H26.7311V36.3354H28.9141V36.8685H26.1133V31.9062H28.8317V32.4394H26.7723V33.9978H28.7081V34.5309H28.6669Z" fill="white"/>
<path d="M29.6965 31.9473C30.1084 31.9062 30.5615 31.8242 31.0557 31.8242C32.0031 31.8242 32.6621 32.0293 33.074 32.4394C33.527 32.8495 33.7742 33.4236 33.7742 34.2438C33.7742 35.0641 33.527 35.7202 33.074 36.1713C32.6209 36.6225 31.8383 36.8685 30.8498 36.8685C30.3967 36.8685 29.9849 36.8275 29.6965 36.8275V31.9473ZM30.3555 36.3764C30.5203 36.4174 30.7674 36.4174 31.0146 36.4174C32.3738 36.4174 33.1563 35.6382 33.1563 34.3259C33.1563 33.1366 32.4973 32.3984 31.1381 32.3984C30.8086 32.3984 30.5615 32.4394 30.3967 32.4804V36.3764H30.3555Z" fill="white"/>
<path d="M36.122 36.0893C36.4103 36.2534 36.8222 36.4174 37.2753 36.4174C37.9343 36.4174 38.305 36.0893 38.305 35.5562C38.305 35.1051 38.0579 34.818 37.3577 34.5719C36.5339 34.2849 36.0397 33.8748 36.0397 33.1776C36.0397 32.3984 36.6987 31.8242 37.646 31.8242C38.1402 31.8242 38.5109 31.9472 38.7581 32.0703L38.5933 32.6034C38.4286 32.5214 38.0991 32.3574 37.646 32.3574C36.9458 32.3574 36.6987 32.7675 36.6987 33.0955C36.6987 33.5467 36.987 33.7927 37.6872 34.0388C38.5521 34.3669 38.964 34.777 38.964 35.5152C38.964 36.2944 38.3874 36.9505 37.2341 36.9505C36.7398 36.9505 36.2456 36.8275 35.9573 36.6225L36.122 36.0893Z" fill="white"/>
<path d="M40.8174 32.4394H39.2935V31.9062H43.0004V32.4394H41.4764V36.8685H40.8174V32.4394Z" fill="white"/>
<path d="M43.8241 35.3101L43.2886 36.8685H42.6296L44.3184 31.9062H45.1009L46.7896 36.8685H46.1306L45.5952 35.3101H43.8241ZM45.4304 34.818L44.9362 33.3826C44.8126 33.0545 44.7302 32.7675 44.689 32.4804C44.6067 32.7675 44.5243 33.0956 44.4419 33.3826L43.9477 34.818H45.4304Z" fill="white"/>
<path d="M47.9016 32.4394H46.3777V31.9062H50.0846V32.4394H48.5607V36.8685H47.9016V32.4394Z" fill="white"/>
<path d="M53.2562 34.5309H51.3204V36.3354H53.5034V36.8685H50.6614V31.9062H53.3798V32.4394H51.3204V33.9978H53.2562V34.5309Z" fill="white"/>
<path d="M60.1346 34.3259C60.1346 36.0483 59.1049 36.9505 57.8281 36.9505C56.5101 36.9505 55.5627 35.9253 55.5627 34.4079C55.5627 32.8085 56.5513 31.7832 57.8693 31.7832C59.2697 31.8242 60.1346 32.8495 60.1346 34.3259ZM56.2629 34.4079C56.2629 35.4742 56.8396 36.4174 57.8693 36.4174C58.899 36.4174 59.4756 35.4742 59.4756 34.3669C59.4756 33.3826 58.9402 32.3574 57.8693 32.3574C56.7984 32.3574 56.2629 33.3416 56.2629 34.4079Z" fill="white"/>
<path d="M60.9994 31.9062H63.6767V32.4394H61.6173V34.0798H63.5119V34.613H61.6173V36.8685H60.9583V31.9062H60.9994Z" fill="white"/>
<path d="M66.9718 35.3101L66.4364 36.8685H65.7773L67.4661 31.9062H68.2486L69.9373 36.8685H69.2371L68.7017 35.3101H66.9718ZM68.6193 34.818L68.1251 33.3826C68.0015 33.0545 67.9191 32.7675 67.8779 32.4804C67.7956 32.7675 67.7132 33.0956 67.6308 33.3826L67.1366 34.818H68.6193Z" fill="white"/>
<path d="M74.8799 34.6949C74.8387 33.9978 74.7976 33.1776 74.7976 32.5624H74.7564C74.5916 33.1365 74.3857 33.7517 74.1385 34.4489L73.2736 36.8685H72.7793L71.9556 34.4899C71.7084 33.7927 71.5025 33.1365 71.3789 32.5624C71.3789 33.1776 71.3378 33.9978 71.2966 34.777L71.173 36.9095H70.5552L70.8847 31.9472H71.7084L72.5734 34.3669C72.7793 34.982 72.9441 35.5152 73.0676 36.0483H73.1088C73.2324 35.5562 73.3972 34.982 73.6443 34.3669L74.5504 31.9472H75.3742L75.7037 36.9095H75.0859L74.8799 34.6949Z" fill="white"/>
<path d="M79.2047 34.5309H77.2689V36.3354H79.4518V36.8685H76.6099V31.9062H79.3283V32.4394H77.2689V33.9978H79.2047V34.5309Z" fill="white"/>
<path d="M80.2756 31.9473C80.6051 31.8652 81.0582 31.8242 81.5113 31.8242C82.2115 31.8242 82.6645 31.9473 82.9529 32.2343C83.2 32.4394 83.3647 32.8085 83.3647 33.1776C83.3647 33.8337 82.9529 34.2849 82.4174 34.4489V34.4899C82.7881 34.6129 83.0352 34.982 83.1588 35.4742C83.3236 36.1713 83.4471 36.6635 83.5295 36.8275H82.8705C82.7881 36.7045 82.6645 36.2534 82.541 35.6382C82.3762 34.941 82.1291 34.695 81.5525 34.654H80.9346V36.8275H80.2756V31.9473ZM80.9346 34.2438H81.5937C82.2939 34.2438 82.7057 33.8747 82.7057 33.3006C82.7057 32.6444 82.2527 32.3574 81.5525 32.3574C81.223 32.3574 81.017 32.3984 80.9346 32.3984V34.2438Z" fill="white"/>
<path d="M84.9298 31.9062V36.8685H84.2708V31.9062H84.9298Z" fill="white"/>
<path d="M89.543 36.7045C89.2958 36.8275 88.8428 36.9505 88.2249 36.9505C86.8246 36.9505 85.7537 36.0483 85.7537 34.4489C85.7537 32.8905 86.8246 31.8242 88.3485 31.8242C88.9663 31.8242 89.3782 31.9473 89.543 32.0293L89.3782 32.5624C89.1311 32.4394 88.8016 32.3574 88.3897 32.3574C87.2364 32.3574 86.4539 33.0955 86.4539 34.4079C86.4539 35.6382 87.1541 36.4174 88.3897 36.4174C88.8016 36.4174 89.1723 36.3354 89.4606 36.2124L89.543 36.7045Z" fill="white"/>
<path d="M91.1905 35.3101L90.6551 36.8685H89.9961L91.6848 31.9062H92.4674L94.1561 36.8685H93.4971L92.9616 35.3101H91.1905ZM92.7969 34.818L92.3026 33.3826C92.1791 33.0545 92.0967 32.7675 92.0555 32.4804C91.9731 32.7675 91.8907 33.0956 91.8084 33.3826L91.3141 34.818H92.7969Z" fill="white"/>
<path d="M52.1854 13.0824L53.9153 18.2907H59.4345L54.945 21.5306L56.6749 26.7799L52.1854 23.5401L47.7371 26.7799L49.4258 21.5306L44.9363 18.2907H50.4967L52.1854 13.0824Z" fill="white"/>
<path d="M68.4135 15.543L69.4432 18.6188H72.6971L70.061 20.5463L71.0496 23.6221L68.4135 21.6946L65.7775 23.6221L66.8072 20.5463L64.1711 18.6188H67.425L68.4135 15.543Z" fill="white"/>
<path d="M35.9572 15.543L34.9687 18.6188H31.7148L34.3097 20.5463L33.3212 23.6221L35.9572 21.6946L38.5933 23.6221L37.6047 20.5463L40.1996 18.6188H36.9457L35.9572 15.543Z" fill="white"/>
<path d="M91.9318 23.7451H77.3101V24.1553H91.9318V23.7451Z" fill="#FFC333"/>
<path d="M91.9318 21.7356H77.3101V22.1457H91.9318V21.7356Z" fill="#FFC333"/>
<path d="M91.9318 19.7261H77.3101V20.1362H91.9318V19.7261Z" fill="#FFC333"/>
<path d="M89.6665 17.7166H77.3101V18.1267H89.6665V17.7166Z" fill="#FFC333"/>
<path d="M87.36 15.666H77.3101V16.0762H87.36V15.666Z" fill="#FFC333"/>
<path d="M27.0605 23.7451H12.4387V24.1553H27.0605V23.7451Z" fill="#FFC333"/>
<path d="M27.0605 21.7356H12.4387V22.1457H27.0605V21.7356Z" fill="#FFC333"/>
<path d="M27.0605 19.7261H12.4387V20.1362H27.0605V19.7261Z" fill="#FFC333"/>
<path d="M27.1018 17.7166H14.7454V18.1267H27.1018V17.7166Z" fill="#FFC333"/>
<path d="M27.0604 15.666H17.0105V16.0762H27.0604V15.666Z" fill="#FFC333"/>
<path d="M43.3713 96.0879C43.536 96.1699 43.742 96.2519 43.9891 96.2519C44.3186 96.2519 44.5245 96.0879 44.5245 95.8008C44.5245 95.5547 44.401 95.4317 44.0303 95.2676C43.6184 95.1036 43.3301 94.8986 43.3301 94.5295C43.3301 94.1193 43.6596 93.8323 44.195 93.8323C44.4833 93.8323 44.6481 93.9143 44.7717 93.9553L44.6893 94.2424C44.6069 94.2014 44.4422 94.1193 44.195 94.1193C43.8243 94.1193 43.7008 94.3244 43.7008 94.5295C43.7008 94.7755 43.8655 94.8985 44.2362 95.0216C44.6893 95.1856 44.8952 95.3907 44.8952 95.8008C44.8952 96.2109 44.6069 96.539 43.9891 96.539C43.742 96.539 43.4536 96.457 43.3301 96.3749L43.3713 96.0879Z" fill="white"/>
<path d="M45.6779 93.8733V96.498H45.3484V93.8733H45.6779Z" fill="white"/>
<path d="M46.2957 96.498V93.8733H46.6663L47.4901 95.1856C47.6961 95.4727 47.8196 95.7598 47.9432 96.0469C47.902 95.6778 47.902 95.3907 47.902 94.9806V93.8733H48.2315V96.498H47.902L47.0782 95.1856C46.9135 94.8986 46.7075 94.6115 46.584 94.3244C46.584 94.6525 46.6252 94.9806 46.6252 95.3907V96.498H46.2957Z" fill="white"/>
<path d="M50.7028 96.4159C50.5792 96.498 50.3321 96.539 50.0026 96.539C49.2612 96.539 48.6846 96.0879 48.6846 95.2266C48.6846 94.4064 49.2612 93.8323 50.0438 93.8323C50.3733 93.8323 50.5792 93.9143 50.6616 93.9553L50.5792 94.2424C50.4557 94.1604 50.2497 94.1193 50.0438 94.1193C49.426 94.1193 49.0141 94.5295 49.0141 95.1856C49.0141 95.8418 49.3848 96.2519 50.0438 96.2519C50.2497 96.2519 50.4557 96.2109 50.5792 96.1289L50.7028 96.4159Z" fill="white"/>
<path d="M52.474 95.2677H51.4443V96.2109H52.5975V96.498H51.1147V93.8733H52.5151V94.1604H51.4443V94.9806H52.474V95.2677Z" fill="white"/>
<path d="M54.492 94.2834L54.0389 94.5294L53.9565 94.2834L54.492 93.9963H54.7803V96.539H54.4508V94.2834H54.492Z" fill="white"/>
<path d="M55.9336 96.2519C56.0159 96.2519 56.0983 96.2519 56.2219 96.2519C56.4278 96.2109 56.5926 96.1289 56.7573 96.0059C56.9221 95.8418 57.0456 95.6368 57.0868 95.3497C56.9633 95.5137 56.7573 95.6368 56.5102 95.6368C56.0571 95.6368 55.7688 95.3087 55.7688 94.8576C55.7688 94.3654 56.0983 93.9553 56.6338 93.9553C57.1692 93.9553 57.4575 94.3654 57.4575 95.0216C57.4575 95.5957 57.2516 95.9648 57.0044 96.2109C56.7985 96.416 56.5514 96.498 56.2631 96.539C56.1395 96.539 56.0159 96.58 55.9336 96.539V96.2519ZM56.0571 94.8165C56.0571 95.1446 56.2631 95.3497 56.5514 95.3497C56.7985 95.3497 56.9633 95.2266 57.0456 95.1036C57.0456 95.0626 57.0868 95.0216 57.0868 94.9806C57.0868 94.5295 56.9221 94.2014 56.5514 94.2014C56.2631 94.2014 56.0571 94.4474 56.0571 94.8165Z" fill="white"/>
<path d="M57.9519 96.2519C58.0342 96.2519 58.1166 96.2519 58.2402 96.2519C58.4461 96.2109 58.6109 96.1289 58.7756 96.0059C58.9404 95.8418 59.0639 95.6368 59.1051 95.3497C58.9816 95.5137 58.7756 95.6368 58.5285 95.6368C58.0754 95.6368 57.7871 95.3087 57.7871 94.8576C57.7871 94.3654 58.1166 93.9553 58.6521 93.9553C59.1875 93.9553 59.4758 94.3654 59.4758 95.0216C59.4758 95.5957 59.2699 95.9648 59.0228 96.2109C58.8168 96.416 58.5697 96.498 58.2814 96.539C58.1578 96.539 58.0342 96.58 57.9519 96.539V96.2519ZM58.0754 94.8165C58.0754 95.1446 58.2814 95.3497 58.5697 95.3497C58.8168 95.3497 58.9816 95.2266 59.0639 95.1036C59.0639 95.0626 59.1051 95.0216 59.1051 94.9806C59.1051 94.5295 58.9404 94.2014 58.5697 94.2014C58.2814 94.2014 58.0754 94.4474 58.0754 94.8165Z" fill="white"/>
<path d="M61.2057 94.2424C61.1234 94.2424 61.041 94.2424 60.9586 94.2424C60.4232 94.3244 60.1348 94.7345 60.0937 95.1446C60.2172 94.9806 60.4232 94.8575 60.7115 94.8575C61.1646 94.8575 61.4941 95.1856 61.4941 95.6777C61.4941 96.1289 61.1646 96.58 60.6703 96.58C60.1349 96.58 59.7642 96.1699 59.7642 95.5137C59.7642 95.0216 59.9289 94.6115 60.176 94.3654C60.382 94.1604 60.6703 94.0373 60.9998 93.9963C61.0822 93.9963 61.2057 93.9963 61.2469 93.9963V94.2424H61.2057ZM61.0822 95.6777C61.0822 95.3086 60.8762 95.1036 60.5467 95.1036C60.3408 95.1036 60.1349 95.2266 60.0525 95.4317C60.0113 95.4727 60.0113 95.5137 60.0113 95.5957C60.0113 96.0058 60.2172 96.3339 60.5879 96.3339C60.9174 96.2929 61.0822 96.0468 61.0822 95.6777Z" fill="white"/>
<path d="M46.1308 70.7023H31.509V71.1124H46.1308V70.7023Z" fill="#FFC333"/>
<path d="M46.1721 72.7118H33.3625V73.1219H46.1721V72.7118Z" fill="#FFC333"/>
<path d="M46.172 74.7623H36.1221V75.1724H46.172V74.7623Z" fill="#FFC333"/>
<path d="M72.4912 70.7023H57.8694V71.1124H72.4912V70.7023Z" fill="#FFC333"/>
<path d="M70.6789 72.7118H57.8694V73.1219H70.6789V72.7118Z" fill="#FFC333"/>
<path d="M67.9193 74.7623H57.8694V75.1724H67.9193V74.7623Z" fill="#FFC333"/>
<path d="M42.012 91.2486C41.9297 91.2486 41.8473 91.2076 41.8061 91.1666C41.6002 91.0435 41.559 90.7975 41.6825 90.5924L51.6501 74.9264C51.8148 74.6803 52.1855 74.6803 52.3503 74.9264L62.3178 90.5924C62.4414 90.7975 62.4002 91.0435 62.1942 91.1666C61.9883 91.2896 61.7412 91.2486 61.6176 91.0435L51.9796 75.9106L42.3416 91.0435C42.3004 91.2076 42.1768 91.2486 42.012 91.2486Z" fill="white"/>
<path d="M52.0208 87.2706C48.1903 87.2706 45.5543 85.3431 45.5131 85.302C45.3484 85.179 45.3072 84.8919 45.4307 84.7279C45.5543 84.5639 45.8426 84.5228 46.0074 84.6459C46.2133 84.8099 51.5678 88.7059 58.0343 84.6459C58.2402 84.5228 58.4874 84.5639 58.6109 84.7689C58.7345 84.974 58.6933 85.22 58.4874 85.3431C56.1396 86.7784 53.9567 87.2706 52.0208 87.2706Z" fill="white"/>
<path d="M52.0208 75.5825C50.6204 75.5825 49.5083 74.4753 49.5083 73.0809C49.5083 71.6865 50.6204 70.5793 52.0208 70.5793C53.38 70.5793 54.5332 71.6865 54.5332 73.0809C54.5332 74.4753 53.38 75.5825 52.0208 75.5825ZM52.0208 71.4405C51.1146 71.4405 50.3321 72.1787 50.3321 73.1219C50.3321 74.0652 51.0735 74.8033 52.0208 74.8033C52.9269 74.8033 53.7095 74.0652 53.7095 73.1219C53.7095 72.1787 52.9269 71.4405 52.0208 71.4405Z" fill="white"/>
<path d="M53.1329 71.4405H50.9087V68.2827H53.1329V71.4405ZM51.7325 70.6203H52.3091V69.1029H51.7325V70.6203Z" fill="white"/>
<path d="M67.6722 80.0117C67.6722 80.0117 64.995 80.7909 64.5007 84.8509C64.5007 84.8509 67.5487 86.2043 67.6722 80.0117Z" fill="white"/>
<path d="M70.7612 88.3779C70.7612 88.3779 68.0428 89.3211 64.9949 86.2863C65.0361 86.2863 66.56 83.4976 70.7612 88.3779Z" fill="white"/>
<path d="M70.473 78.4533C70.473 78.4533 67.9194 79.5606 67.8782 83.6616C67.8782 83.6616 71.0085 84.6869 70.473 78.4533Z" fill="white"/>
<path d="M74.427 86.4913C74.427 86.4913 71.8733 87.7217 68.5371 85.056C68.5371 85.056 69.7316 82.0622 74.427 86.4913Z" fill="white"/>
<path d="M73.0678 76.5668C73.0678 76.5668 70.6789 77.9611 71.0496 82.1032C71.0496 82.0622 74.2622 82.7184 73.0678 76.5668Z" fill="white"/>
<path d="M77.8044 84.1537C77.8044 84.1537 75.4155 85.7121 71.8733 83.4155C71.8733 83.3745 72.7382 80.2577 77.8044 84.1537Z" fill="white"/>
<path d="M75.4567 74.3932C75.4567 74.3932 73.2325 76.0747 74.0563 80.1347C74.0563 80.1347 77.2278 80.4218 75.4567 74.3932Z" fill="white"/>
<path d="M80.8935 81.406C80.8935 81.406 78.7105 83.2105 74.9624 81.324C74.9624 81.365 75.4978 78.1252 80.8935 81.406Z" fill="white"/>
<path d="M77.5162 71.9326C77.5162 71.9326 75.5392 73.8601 76.7336 77.8381C76.7336 77.8381 79.9051 77.7561 77.5162 71.9326Z" fill="white"/>
<path d="M83.612 78.3302C83.612 78.3302 81.6761 80.3808 77.8044 78.9454C77.8044 78.9454 77.9692 75.6646 83.612 78.3302Z" fill="white"/>
<path d="M79.8228 75.8696C79.8228 75.8696 83.9416 76.1567 83.9004 69.9641C83.9004 69.9641 79.658 72.6298 79.8228 75.8696Z" fill="white"/>
<path d="M36.3281 80.0117C36.3281 80.0117 39.0054 80.7909 39.4996 84.8509C39.4996 84.8509 36.4929 86.2043 36.3281 80.0117Z" fill="white"/>
<path d="M33.239 88.3779C33.239 88.3779 35.9574 89.3211 39.0054 86.2863C39.0054 86.2863 37.4814 83.4976 33.239 88.3779Z" fill="white"/>
<path d="M33.5272 78.4533C33.5272 78.4533 36.0809 79.5606 36.122 83.6616C36.122 83.6616 32.9917 84.6869 33.5272 78.4533Z" fill="white"/>
<path d="M29.5732 86.4913C29.5732 86.4913 32.1269 87.7217 35.4631 85.056C35.4631 85.056 34.2687 82.0622 29.5732 86.4913Z" fill="white"/>
<path d="M30.9324 76.5668C30.9324 76.5668 33.3213 77.9611 32.9506 82.1032C32.9506 82.0622 29.7792 82.7184 30.9324 76.5668Z" fill="white"/>
<path d="M26.1958 84.1537C26.1958 84.1537 28.5847 85.7121 32.1269 83.4155C32.1269 83.3745 31.2619 80.2577 26.1958 84.1537Z" fill="white"/>
<path d="M28.5847 74.3932C28.5847 74.3932 30.8089 76.0747 29.9851 80.1347C29.9851 80.1347 26.7724 80.4218 28.5847 74.3932Z" fill="white"/>
<path d="M23.1479 81.406C23.1479 81.406 25.3309 83.2105 29.079 81.324C29.0378 81.365 28.5024 78.1252 23.1479 81.406Z" fill="white"/>
<path d="M26.4842 71.9326C26.4842 71.9326 28.4612 73.8601 27.2668 77.8381C27.2668 77.8381 24.0953 77.7561 26.4842 71.9326Z" fill="white"/>
<path d="M20.4294 78.3302C20.4294 78.3302 22.3653 80.3808 26.237 78.9454C26.237 78.9454 26.031 75.6646 20.4294 78.3302Z" fill="white"/>
<path d="M24.1775 75.8696C24.1775 75.8696 20.0587 76.1567 20.0999 69.9641C20.0999 69.9641 24.3423 72.6298 24.1775 75.8696Z" fill="white"/>
</g>
<defs>
<clipPath id="clip0_336_1242">
<rect width="104" height="112" fill="white"/>
</clipPath>
</defs>
</svg>
