<svg width="29" height="36" viewBox="0 0 29 36" fill="none" xmlns="http://www.w3.org/2000/svg">
<g clip-path="url(#clip0_43_306)">
<path d="M23.2338 26.1494H6.22987C6.03894 26.1494 5.88619 25.9935 5.88619 25.7986V11.0032C5.88619 10.903 5.92983 10.8084 6.00075 10.7415C6.07167 10.6747 6.17532 10.6413 6.27351 10.658L14.7782 11.7773L23.1902 10.658C23.2884 10.6469 23.3866 10.6747 23.4629 10.7415C23.5393 10.8084 23.5775 10.903 23.5775 11.0032V25.8042C23.5775 25.9935 23.4248 26.1494 23.2338 26.1494ZM6.57355 25.4478H22.8901V11.4042L14.8219 12.4733C14.7946 12.4789 14.7619 12.4789 14.7346 12.4733L6.57355 11.3986V25.4478Z" fill="#001E43"/>
<path d="M23.2338 25.7819L15.1492 35.2093L14.7782 35.6492L6.22987 25.7819H23.2338Z" fill="#B80D1C"/>
<path d="M15.3728 34.8473L15.1492 35.2093L14.7782 35.6492L6.22987 25.7819H7.46821L7.60459 25.7986L15.3728 34.8473Z" fill="#B80D1C"/>
<path d="M14.7782 36C14.68 36 14.5873 35.9555 14.5218 35.8831L5.96802 26.0158C5.88074 25.91 5.85892 25.7652 5.91347 25.6371C5.96802 25.509 6.09349 25.4311 6.22987 25.4311H23.2338C23.3702 25.4311 23.4902 25.509 23.5502 25.6371C23.6102 25.7652 23.583 25.91 23.4957 26.0158L15.0401 35.8831C14.9692 35.9555 14.8764 36 14.7782 36ZM6.9936 26.1327L14.7782 35.1146L22.4755 26.1327H6.9936Z" fill="#FFC333"/>
<path d="M28.6563 3.63621L14.7782 6.77682L0.343681 3.68076L14.9146 0.35083L28.6563 3.63621Z" fill="#FA394A"/>
<path d="M2.36757 4.09284L16.3384 0.762909L15.3292 0.512329L0.758278 3.84226L2.36757 4.09284Z" fill="#B80D1C"/>
<path d="M14.7782 7.13326C14.7564 7.13326 14.7291 7.13326 14.7073 7.12769L0.272761 4.02607C0.11456 3.99266 0 3.84788 0 3.68639C0 3.52491 0.109105 3.37456 0.267306 3.34115L14.8382 0.0112213C14.8873 8.44297e-05 14.9419 8.44297e-05 14.991 0.0112213L28.7327 3.2966C28.8909 3.33558 29 3.47479 29 3.64185C29 3.80333 28.8854 3.94811 28.7272 3.98152L14.8491 7.12213C14.8273 7.12769 14.8 7.13326 14.7782 7.13326ZM1.96934 3.66969L14.7728 6.41493L27.1016 3.62514L14.9146 0.712845L1.96934 3.66969Z" fill="#B80D1C"/>
<path d="M23.2338 4.90027V11.0033L14.7782 12.1281L6.22987 11.0033V4.95038L14.7782 6.77683L23.2338 4.90027Z" fill="#FA394A"/>
<path d="M11.696 11.7049L11.7451 25.7819H6.22987V10.8641L11.696 11.7049Z" fill="#FA394A"/>
<path d="M6.18078 10.7861L7.56095 10.9531V25.9044L6.18078 25.8877V10.7861Z" fill="white"/>
<path d="M11.7451 26.1327H6.22987C6.03894 26.1327 5.88619 25.9768 5.88619 25.7819V10.8641C5.88619 10.7638 5.92983 10.6636 6.00621 10.5968C6.08258 10.53 6.18077 10.5021 6.28442 10.5133L11.7506 11.3597C11.9197 11.3875 12.0451 11.5323 12.0451 11.7049L12.0888 25.7764C12.0888 25.871 12.0506 25.9601 11.9906 26.0269C11.9197 26.0938 11.8324 26.1327 11.7451 26.1327ZM6.57355 25.4311H11.396L11.3523 12.0112L6.57355 11.2706V25.4311Z" fill="#001E43"/>
<path d="M17.6259 11.8497V25.7819H11.696V11.7049L14.7782 12.1281L17.6259 11.8497Z" fill="#FFC333"/>
<path d="M11.696 11.7049L13.0762 11.8608V25.7986L11.696 25.7819V11.7049Z" fill="white"/>
<path d="M17.6258 26.1439H11.696C11.4996 26.1439 11.336 25.9824 11.336 25.7763V11.7049C11.336 11.5991 11.3796 11.4988 11.456 11.432C11.5324 11.3652 11.636 11.3318 11.7397 11.3429L14.7782 11.755L17.5877 11.4821C17.6859 11.471 17.7895 11.5044 17.8604 11.5768C17.9368 11.6436 17.975 11.7439 17.975 11.8441V25.7819C17.9804 25.9824 17.8222 26.1439 17.6258 26.1439ZM12.0561 25.4144H17.2713V12.2506L14.8109 12.49C14.7837 12.49 14.7564 12.49 14.7291 12.49L12.0561 12.1281V25.4144Z" fill="#001E43"/>
<path d="M23.1847 10.9086V25.8264H17.6695L17.6258 11.8496L23.1847 10.9086Z" fill="#FA394A"/>
<path d="M21.6245 11.02L23.0047 11.1814V25.6705L21.6245 25.6538V11.02Z" fill="#FA394A"/>
<path d="M23.1847 26.1828H17.6695C17.4786 26.1828 17.3258 26.0269 17.3258 25.832L17.2822 11.8496C17.2822 11.677 17.4022 11.5322 17.5713 11.4988L23.1302 10.5633C23.2284 10.5466 23.332 10.5745 23.4084 10.6413C23.4848 10.7081 23.5284 10.8083 23.5284 10.9086V25.8264C23.5284 26.0213 23.3757 26.1828 23.1847 26.1828ZM18.0132 25.4756H22.841V11.3262L17.9695 12.1503L18.0132 25.4756Z" fill="#001E43"/>
<path d="M16.5239 33.5221L14.7782 35.6492L13.0271 33.5221H16.5239Z" fill="#B80D1C"/>
<path d="M14.7782 36C14.6746 36 14.5818 35.9555 14.5164 35.872L12.7707 33.7448C12.6834 33.639 12.667 33.4942 12.7216 33.3717C12.7761 33.2492 12.9016 33.1713 13.0325 33.1713H16.5239C16.6603 33.1713 16.7803 33.2492 16.8348 33.3717C16.8894 33.4942 16.873 33.639 16.7857 33.7448L15.0401 35.872C14.9746 35.9555 14.8764 36 14.7782 36ZM13.769 33.8729L14.7782 35.0979L15.7874 33.8729H13.769Z" fill="#FFC333"/>
<path d="M13.9108 2.3722C13.7854 2.24412 13.5399 2.17173 13.3708 2.20514L3.15313 4.37127C2.97856 4.41025 2.83672 4.58844 2.83672 4.76663V17.7634C2.83672 17.9416 2.98401 18.0919 3.15858 18.0919H3.25132C3.42589 18.0919 3.57318 17.9416 3.57318 17.7634V5.27893C3.57318 5.10074 3.71502 4.92254 3.88958 4.88357L13.9218 2.76756C14.0963 2.72858 14.1345 2.59493 14.009 2.46686L13.9108 2.3722Z" fill="#B80D1C"/>
<path d="M6.27352 6.47057L14.7291 8.20236L23.2338 6.70445V4.90027L15.051 6.60978L6.22987 4.95038L6.27352 6.47057Z" fill="#001E43"/>
<path d="M14.7782 12.4789C14.7619 12.4789 14.7509 12.4789 14.7346 12.4734L6.18623 11.3485C6.01166 11.3263 5.88619 11.1759 5.88619 10.9977V4.95038C5.88619 4.84458 5.93529 4.74435 6.01166 4.67753C6.09349 4.61071 6.19714 4.58286 6.30079 4.60514L14.7782 6.42045L23.1629 4.56059C23.2666 4.53832 23.3702 4.56616 23.452 4.63298C23.5339 4.6998 23.583 4.80003 23.583 4.90583V11.0033C23.583 11.1815 23.452 11.3318 23.2829 11.3541L14.8273 12.4789C14.8055 12.4789 14.7891 12.4789 14.7782 12.4789ZM6.57355 10.6914L14.7782 11.7717L22.8901 10.6914V5.34017L14.8491 7.12208C14.8 7.13321 14.7509 7.13321 14.7073 7.12208L6.57355 5.38472V10.6914Z" fill="#001E43"/>
<path d="M3.96595 18.3369C3.96595 18.7489 3.63864 19.0886 3.2295 19.0886C2.82581 19.0886 2.49304 18.7545 2.49304 18.3369C2.49304 17.9248 2.82036 17.5851 3.2295 17.5851C3.63864 17.5851 3.96595 17.9248 3.96595 18.3369Z" fill="#B80D1C"/>
</g>
<defs>
<clipPath id="clip0_43_306">
<rect width="29" height="36" fill="white"/>
</clipPath>
</defs>
</svg>
